<svg id="Capa_1" data-name="Capa 1" xmlns="http://www.w3.org/2000/svg" xmlns:xlink="http://www.w3.org/1999/xlink" viewBox="0 0 1272.6 530.61"><defs><style>.cls-1{fill:url(#Degradado_sin_nombre_25);}.cls-2{fill:url(#Degradado_sin_nombre_34);}.cls-3{fill:#0000a2;}</style><linearGradient id="Degradado_sin_nombre_25" x1="96.9" y1="302.71" x2="502.86" y2="338.23" gradientUnits="userSpaceOnUse"><stop offset="0" stop-color="#0000a2"/><stop offset="0.14" stop-color="#0004a4"/><stop offset="0.29" stop-color="#0011ab"/><stop offset="0.45" stop-color="#0026b5"/><stop offset="0.61" stop-color="#0044c5"/><stop offset="0.77" stop-color="#006bd8"/><stop offset="0.93" stop-color="#0099ef"/><stop offset="1" stop-color="#00b0fb"/></linearGradient><linearGradient id="Degradado_sin_nombre_34" x1="1266.5" y1="539.31" x2="1287.44" y2="420.59" gradientUnits="userSpaceOnUse"><stop offset="0" stop-color="#0000a2"/><stop offset="0.14" stop-color="#0005a4"/><stop offset="0.29" stop-color="#0012ab"/><stop offset="0.45" stop-color="#0028b6"/><stop offset="0.61" stop-color="#0047c6"/><stop offset="0.78" stop-color="#006fda"/><stop offset="0.95" stop-color="#00a0f3"/><stop offset="1" stop-color="#00b0fb"/></linearGradient></defs><path class="cls-1" d="M427.47,269.12,265.58,368.76a10.33,10.33,0,0,1,4.16,1.63c6.64,4.17,29.37,19.14,35.42,19.73a18.89,18.89,0,0,0,6.7-.42c53.93-31,106.32-64.61,159.8-96.38,11.57,6.94,23.68,13.34,34.91,20.82,1.28.85,7.4,4.19,6.3,5.69L306,443.5,95.68,318.5c-.37-1.8.46-1.08,1.14-1.51,62.55-38.53,126.26-75.19,189-113.5,10.13-5.31,18.38-6.63,29.43-3.09,35.12,20.83,71.93,40.35,106,63C422.48,264.3,428.53,267.58,427.47,269.12Zm-84.5,0c.38-.57-1.79-2.07-2.39-2.5-5.94-4.26-22.62-14.53-29-17.22-7.71-3.22-12-1.71-19,1.79-20.06,10.07-43.21,25.76-62.84,37.68-15.28,9.29-30.39,18.88-45.75,28.06-1,0-1.57.6-1.11,1.56,1.39,2.9,35.64,20,40.46,24.19Z" transform="translate(-75.22 -198.42)"/><path d="M291.37,728.14c-10.19-5-19.86-11.23-29.61-17.08C199.29,673.52,137,635.66,75.22,596.94V341.64c0-.1,1.29-1.78,1.76-.9l190.3,113.05c10.55,8,24.09,28.16,24.09,41.74ZM119.69,418.58V570.25l125.93,76c1.79.57,2-3.69,2.16-4.86.72-7.48,0-17.08.05-24.85.2-29.29.36-59.07,0-88.07-.21-17.3-.85-31.75-15.76-43Z" transform="translate(-75.22 -198.42)"/><path d="M533.33,343.86v254c-20.27,12.55-40.17,25.84-60.57,38.18-3,1.82-6.26,4.2-9.7,5V587.15l25.79-16V444.38L430.5,555.52l-68.85-46.2V647.19l35.58-20.46v53.82L317.17,729V474.18L361,448.12l60.63,42.52c19.24-36.76,36.19-74.72,54.32-112l11.7-7.87Z" transform="translate(-75.22 -198.42)"/><path class="cls-2" d="M1213.05,529.89l.89-105h95.63c14.38,0,30.41,11.91,35.3,25.19,3.73,10.12,3.76,40.64,1,51.12-3.64,13.66-20,28.66-34.49,28.66Zm30.25-25.8h60c3,0,8.75-3.75,10.62-6.28,5.84-8,6.11-33.07.07-40.88-2.34-3-8.75-7.1-12.47-7.1H1243.3Z" transform="translate(-75.22 -198.42)"/><path class="cls-3" d="M1195.26,424.92v24.91l-31.13,16.91,14.92,3.3c24.26,7.6,26.31,43.85,4.36,55.56-1.76.94-10.33,4.29-11.72,4.29h-97.41l4.49-24.86,81.14-.26c5.94-1.37,9.76-4.63,7.1-11.13-.51-1.24-4.1-4.67-5.11-4.67h-56a9.29,9.29,0,0,1-1.33-1.33v-21.8l11.59-.42,26.65-14.69a21.27,21.27,0,0,0-4.84-.94c-14.18-.91-32-.42-46.34,0-1.85,0-10.19,2.15-10.19-.4V424.92Z" transform="translate(-75.22 -198.42)"/><path d="M927.07,424.92l46,69.68,2.5,2.37,47.61-72.05h35.13l-.44,105H1028V468.51L988.4,528.06l-1.28,1.39-25.63.25c-13-19.83-25.18-40.34-39.32-59.41v59.6H891v-105Z" transform="translate(-75.22 -198.42)"/><path d="M874.14,424.92v24.91c-.87-.29-1.93.89-2.22.89H779.85c-.33,4.42.88,9.17-.89,13.34h80.5c3.4,0-1.12,20.54-.56,23.46l-1.37,1.3-77.68,1v12.9c0,.27-1.13.68-.89,1.33h97.4c.55,0,1.23,1.32,1.29,2.13.39,5.58-4,17.43-4.4,23.67H748.71v-105Z" transform="translate(-75.22 -198.42)"/><path d="M594.82,529.89v-105H697.57c10.23,0,25.11,8.76,30.53,17.51,9.3,15,9.2,56.38-.56,71.18-4.76,7.21-18.72,16.28-27.31,16.28Zm30.25-25.8h65.38c1.74,0,7.79-3.42,9.2-5,6.71-7.64,6.78-37-.84-44.25-1-1-6.45-4.09-7.47-4.09H625.07Z" transform="translate(-75.22 -198.42)"/></svg>