<svg id="Capa_1" data-name="Capa 1" xmlns="http://www.w3.org/2000/svg" xmlns:xlink="http://www.w3.org/1999/xlink" viewBox="0 0 752.99 104.97"><defs><style>.cls-1{fill:url(#Degradado_sin_nombre_34);}.cls-2{fill:#0000a2;}</style><linearGradient id="Degradado_sin_nombre_34" x1="835.18" y1="887.23" x2="856.12" y2="768.51" gradientUnits="userSpaceOnUse"><stop offset="0" stop-color="#0000a2"/><stop offset="0.14" stop-color="#0005a4"/><stop offset="0.29" stop-color="#0012ab"/><stop offset="0.45" stop-color="#0028b6"/><stop offset="0.61" stop-color="#0047c6"/><stop offset="0.78" stop-color="#006fda"/><stop offset="0.95" stop-color="#00a0f3"/><stop offset="1" stop-color="#00b0fb"/></linearGradient></defs><path class="cls-1" d="M781.73,877.8l.89-105h95.63c14.38,0,30.41,11.9,35.3,25.18,3.73,10.12,3.76,40.65,1,51.12-3.64,13.66-20,28.66-34.49,28.66ZM812,852h60c3,0,8.75-3.75,10.61-6.29,5.85-8,6.12-33.07.08-40.88-2.34-3-8.75-7.1-12.47-7.1H812Z" transform="translate(-163.5 -772.84)"/><path class="cls-2" d="M763.94,772.84v24.9l-31.13,16.92L747.73,818c24.26,7.6,26.31,43.86,4.36,55.57-1.76.94-10.33,4.28-11.72,4.28H643l4.49-24.86,81.14-.26c5.94-1.36,9.76-4.62,7.1-11.12-.51-1.25-4.1-4.68-5.11-4.68h-56a9.29,9.29,0,0,1-1.33-1.33V813.76l11.59-.42,26.65-14.7a21.8,21.8,0,0,0-4.85-.94c-14.18-.9-32-.41-46.33,0-1.85.06-10.19,2.16-10.19-.4V772.84Z" transform="translate(-163.5 -772.84)"/><path d="M495.75,772.84l46,69.67,2.5,2.38,47.61-72H627l-.44,105h-29.8V816.42L557.08,876l-1.28,1.38-25.63.26c-13-19.84-25.18-40.35-39.32-59.42v59.6H459.72v-105Z" transform="translate(-163.5 -772.84)"/><path d="M442.82,772.84v24.9c-.88-.28-1.93.89-2.23.89H348.53c-.33,4.42.88,9.18-.89,13.35h80.5c3.4,0-1.12,20.53-.56,23.45l-1.37,1.3-77.68,1v12.9c0,.27-1.13.68-.89,1.34H445c.55,0,1.23,1.31,1.29,2.13.38,5.57-4,17.43-4.4,23.66H317.39v-105Z" transform="translate(-163.5 -772.84)"/><path d="M163.5,877.8v-105H266.25c10.23,0,25.11,8.76,30.53,17.5,9.3,15,9.2,56.38-.56,71.18-4.76,7.22-18.72,16.28-27.31,16.28ZM193.75,852h65.38c1.74,0,7.79-3.43,9.2-5,6.71-7.64,6.78-37-.84-44.24-1-1-6.45-4.1-7.47-4.1H193.75Z" transform="translate(-163.5 -772.84)"/></svg>