<svg id="Capa_1" data-name="Capa 1" xmlns="http://www.w3.org/2000/svg" viewBox="0 0 515 596.5"><defs><style>.cls-1{fill:#0000a2;}</style></defs><path class="cls-1" d="M817.78,85.11l-182,112a11.5,11.5,0,0,1,4.68,1.83c7.46,4.69,33,21.52,39.82,22.18a21.2,21.2,0,0,0,7.53-.47C748.45,185.78,807.34,148,867.47,112.31c13,7.8,26.62,15,39.24,23.4,1.44,1,8.32,4.71,7.08,6.41l-232.56,139L444.8,140.62c-.42-2,.51-1.22,1.28-1.7C516.39,95.6,588,54.39,658.49,11.33c11.39-6,20.66-7.46,33.08-3.48,39.49,23.42,80.87,45.36,119.14,70.86C812.18,79.69,819,83.38,817.78,85.11Zm-95,0c.43-.63-2-2.32-2.68-2.8C713.43,77.52,694.68,66,687.47,63,678.81,59.33,674,61,666.12,65c-22.55,11.32-48.57,29-70.64,42.36-17.18,10.44-34.17,21.23-51.43,31.55-1.09,0-1.77.67-1.25,1.75,1.56,3.26,40.07,22.46,45.48,27.19Z" transform="translate(-421.79 -5.63)"/><path d="M664.79,601.13c-11.46-5.67-22.34-12.63-33.29-19.21-70.23-42.19-140.31-84.76-209.71-128.29v-287c0-.11,1.45-2,2-1L637.71,292.71c11.85,9,27.08,31.66,27.08,46.92Zm-193-348v170.5l141.56,85.45c2,.65,2.31-4.15,2.43-5.46.81-8.42,0-19.21.06-27.95.22-32.92.4-66.39,0-99-.24-19.44-1-35.68-17.72-48.36Z" transform="translate(-421.79 -5.63)"/><path d="M936.79,169.13v285.5c-22.79,14.11-45.16,29-68.08,42.91-3.39,2-7,4.73-10.92,5.59v-60.5l29-18V282.13l-65.6,124.94-77.4-51.94v155l40-23v60.5l-90,54.5V315.63l49.32-29.3,68.16,47.8c21.62-41.32,40.68-84,61.06-126l13.15-8.85Z" transform="translate(-421.79 -5.63)"/></svg>